<?xml version="1.0" encoding="utf-8"?>
<!-- Generator: Adobe Illustrator 16.0.0, SVG Export Plug-In . SVG Version: 6.00 Build 0)  -->
<!DOCTYPE svg PUBLIC "-//W3C//DTD SVG 1.1//EN" "http://www.w3.org/Graphics/SVG/1.1/DTD/svg11.dtd">
<svg version="1.1" id="Layer_1" xmlns="http://www.w3.org/2000/svg" xmlns:xlink="http://www.w3.org/1999/xlink" x="0px" y="0px"
	 width="113px" height="99.956px" viewBox="0 0 113 99.956" enable-background="new 0 0 113 99.956" xml:space="preserve">
<g>
	<g>
		<rect x="46.894" y="369.514" fill="#1471AF" width="9.215" height="8.067"/>
		<path fill="#999999" d="M46.894,357.955c0.015,0,0.028-0.002,0.043-0.002c0.548,0,1.054,0.03,1.542,0.073v-4.029h-1.585V357.955z"
			/>
		<polygon fill="#808080" points="46.894,352.918 46.894,353.638 46.894,353.997 48.479,353.997 49.018,353.997 49.018,352.918 		
			"/>
		<path fill="#1C90BF" d="M48.479,358.026c-0.488-0.043-0.994-0.073-1.542-0.073c-0.015,0-0.028,0.002-0.043,0.002v1v1.798h8.384
			C54.534,360,52.481,358.373,48.479,358.026z"/>
		<path fill="#666666" d="M56.486,360.753h-1.209h-8.384v0.386v8.118v0.257h9.215h0.378c0.387,0,0.701-0.313,0.701-0.7v-7.359
			C57.188,361.066,56.873,360.753,56.486,360.753z"/>
		<rect x="37.766" y="369.514" fill="#1C90BF" width="9.128" height="8.067"/>
		<path fill="#CCCCCC" d="M46.894,353.997h-1.498v4.021c0.473-0.037,0.966-0.063,1.498-0.063V353.997z"/>
		<polygon fill="#999999" points="44.855,352.918 44.855,353.997 45.396,353.997 46.894,353.997 46.894,353.638 46.894,352.918 		
			"/>
		<path fill="#4DBFD9" d="M45.396,358.019c-4.261,0.331-6.181,1.976-6.845,2.734h8.343v-1.798v-1
			C46.361,357.956,45.868,357.981,45.396,358.019z"/>
		<path fill="#808080" d="M38.551,360.753h-1.164c-0.387,0-0.7,0.313-0.7,0.701v7.359c0,0.387,0.313,0.7,0.7,0.7h0.379h9.128v-0.257
			v-8.118v-0.386H38.551z"/>
	</g>
	<g>
		<path fill="#4DBFD9" d="M38.33,372.135c-1.702,0-3.082,1.38-3.082,3.082v7.723c1.082,1.047,1.772,2.619,1.772,4.378
			s-0.69,3.331-1.772,4.377v5.08c1.082,1.046,1.772,2.618,1.772,4.377s-0.69,3.331-1.772,4.377v4.733
			c1.082,1.046,1.772,2.618,1.772,4.377s-0.69,3.331-1.772,4.378v8.506c0,1.702,0.308,4.881,3.082,5.035h8.632v-60.423H38.33z"/>
		<path fill="#1C90BF" d="M55.543,372.135c1.702,0,3.083,1.38,3.083,3.082v7.723c-1.083,1.047-1.772,2.619-1.772,4.378
			s0.689,3.331,1.772,4.377v5.08c-1.083,1.046-1.772,2.618-1.772,4.377s0.689,3.331,1.772,4.377v4.733
			c-1.083,1.046-1.772,2.618-1.772,4.377s0.689,3.331,1.772,4.378v8.506c0,1.702-0.411,4.983-3.083,5.035h-8.632v-60.423H55.543z"/>
	</g>
</g>
<g>
	<g>
		<path fill="#4F4F4F" d="M-72.613,380.43c1.933-4.393,8.649-4.584,11.834-4.585v-7.609c-0.021,0-0.047-0.001-0.068-0.001
			c-4.199,0-11.546,0.088-16.049,4.977c-4.353,4.725-5.104,11.134-3.617,15.919h8.58C-73.798,386.938-74.087,383.78-72.613,380.43z"
			/>
		<path fill="#333333" d="M-60.759,375.845c3.208,0,10.052,0.185,11.988,4.585c1.474,3.351,1.185,6.508-0.68,8.7h8.58
			c1.486-4.785,0.735-11.194-3.617-15.919c-4.479-4.863-12.078-4.975-16.292-4.976v7.609
			C-60.772,375.845-60.766,375.845-60.759,375.845z"/>
		<path fill="#F0851D" d="M-55.643,413.235c0-2.788-2.261-5.049-5.049-5.049c-0.03,0-0.059,0.004-0.088,0.005v10.089
			c0.029,0,0.058,0.004,0.088,0.004C-57.903,418.284-55.643,416.023-55.643,413.235z"/>
		<path fill="#F0851D" d="M-76.312,401.747c-1.17,2.635-5.642,11.898-1.463,19.172c3.867,6.732,10.533,7.312,16.995,7.316v-9.955
			v-10.089V391.26c-2.027,0-4.373,1.348-7.639,0.195c-1.488-0.525-2.665-1.325-3.516-2.325h-8.58
			c0.263,0.846,0.587,1.647,0.982,2.374C-76.896,396.333-75.141,399.113-76.312,401.747z"/>
		<path fill="#E8721B" d="M-52.966,391.455c-3.266,1.152-5.773-0.196-7.813-0.195v16.932c0.029-0.001,0.058-0.005,0.088-0.005
			c2.788,0,5.049,2.261,5.049,5.049s-2.261,5.049-5.049,5.049c-0.03,0-0.059-0.004-0.088-0.004v9.955c0.029,0,0.059,0,0.088,0
			c6.489,0,13.197-0.554,17.082-7.316c4.179-7.273-0.292-16.537-1.463-19.172c-1.171-2.634,0.585-5.414,3.22-10.243
			c0.396-0.727,0.72-1.528,0.982-2.374h-8.58C-50.301,390.13-51.478,390.93-52.966,391.455z"/>
	</g>
	<path fill="#F9B256" d="M-60.694,408.324c-0.029,0-0.058,0.004-0.087,0.005c-2.748,0.047-4.962,2.285-4.962,5.044
		s2.214,4.998,4.962,5.045c0.029,0,0.058,0.004,0.087,0.004c2.788,0,5.049-2.26,5.049-5.049
		C-55.646,410.585-57.906,408.324-60.694,408.324z"/>
	<g>
		<path fill="#FFFFFF" d="M-60.694,418.678c-2.926,0-5.306-2.379-5.306-5.305c0-2.925,2.38-5.305,5.306-5.305
			c2.925,0,5.305,2.38,5.305,5.305C-55.39,416.299-57.77,418.678-60.694,418.678z M-60.694,408.653c-2.603,0-4.72,2.117-4.72,4.72
			s2.117,4.72,4.72,4.72s4.72-2.117,4.72-4.72S-58.092,408.653-60.694,408.653z"/>
	</g>
	<path fill="#F4B073" d="M-56.265,355.88c-0.137-0.363-1.868-6.4-1.958-6.708h-14.292c0.317,1.694,1.577,10.89,1.25,13.833
		c-0.375,3.375-0.348,6.504,0.22,8.879c1.229,5.156,3.358,8.089,5.155,6.121c1.375,1.25,3.125,2.125,4.25,0.125
		c0.172,0.156,2.127,2.063,4,0.125c0.608,0.475,1.738,2.377,3.875,0.125c1.43-1.508,1.754-7.249,1.917-9.208
		c0.425,0.047,1.208,0.375,2.583,0.791c0.044-1.277-0.559-6.092-2.238-7.625C-55.015,359.13-55.945,356.731-56.265,355.88z"/>
	<g>
		<path fill="#FFFFFF" d="M-63.986,414.854h1.012v-2.979h-0.834v-0.513c0.449-0.086,0.763-0.2,1.048-0.371h0.613v3.862h0.891v0.67
			h-2.729V414.854z"/>
		<path fill="#FFFFFF" d="M-57.996,411.918c-0.163-0.2-0.448-0.342-0.72-0.342c-0.569,0-1.033,0.42-1.068,1.674
			c0.264-0.335,0.655-0.534,0.983-0.534c0.783,0,1.325,0.456,1.325,1.404c0,0.904-0.648,1.489-1.425,1.489
			c-0.891,0-1.646-0.691-1.646-2.217c0-1.76,0.855-2.486,1.781-2.486c0.549,0,0.94,0.228,1.212,0.513L-57.996,411.918z
			 M-58.238,414.12c0-0.535-0.264-0.806-0.712-0.806c-0.257,0-0.557,0.143-0.813,0.521c0.085,0.805,0.406,1.146,0.848,1.146
			C-58.537,414.981-58.238,414.676-58.238,414.12z"/>
	</g>
</g>
<g>
	<g>
		<path fill="#999999" d="M-184.499,378.04v-28.78c0-1.138,0.922-2.06,2.06-2.06h22.938c1.138,0,2.061,0.922,2.061,2.06v28.78h3.484
			v-30.432c0-2.003-1.624-3.627-3.627-3.627h-26.773c-2.003,0-3.627,1.624-3.627,3.627v30.432H-184.499z"/>
		<path fill="#666666" d="M-182.786,378.903c0,0.572-0.464,1.036-1.036,1.036h-4.836c-0.572,0-1.037-0.464-1.037-1.036v-15.545
			c0-0.572,0.464-1.037,1.037-1.037h4.836c0.572,0,1.036,0.465,1.036,1.037V378.903z"/>
		<path fill="#666666" d="M-152.3,378.903c0,0.572-0.464,1.036-1.037,1.036h-4.836c-0.572,0-1.036-0.464-1.036-1.036v-15.545
			c0-0.572,0.464-1.037,1.036-1.037h4.836c0.573,0,1.037,0.465,1.037,1.037V378.903z"/>
	</g>
	<g>
		<polygon fill="#999999" points="-167.021,426.48 -174.631,426.023 -174.631,337.796 -167.021,337.796 		"/>
		<path fill="#666666" d="M-162.993,393.68c0,0.64-0.519,1.158-1.157,1.158h-13.694c-0.639,0-1.157-0.519-1.157-1.158l2.218-37.416
			c0-0.64,0.518-1.157,1.157-1.157h9.451c0.639,0,1.157,0.518,1.157,1.157L-162.993,393.68z"/>
	</g>
	<rect x="-202.607" y="424.651" fill="#999999" width="66.099" height="3.202"/>
	<path fill="#666666" d="M-154.358,405.21c0,1.137-0.921,2.059-2.059,2.059h-29.161c-1.137,0-2.059-0.922-2.059-2.059v-0.515
		c0-1.137,0.921-2.059,2.059-2.059h29.161c1.137,0,2.059,0.922,2.059,2.059V405.21z"/>
	<path fill="#999999" d="M-136.976,410.928c0,0.651-0.768,1.18-1.715,1.18h-63.812c-0.947,0-1.715-0.528-1.715-1.18l0,0
		c0-0.651,0.768-1.179,1.715-1.179h63.812C-137.743,409.749-136.976,410.276-136.976,410.928L-136.976,410.928z"/>
	<path fill="#999999" d="M-201.896,426.052v-44.285c0-0.947-0.528-1.716-1.179-1.716s-1.179,0.769-1.179,1.716v44.285H-201.896z"/>
	<path fill="#999999" d="M-136.94,426.052v-44.285c0-0.947-0.528-1.716-1.179-1.716s-1.179,0.769-1.179,1.716v44.285H-136.94z"/>
	<path fill="#666666" d="M-200.602,429.213v-4.043c0-0.975-0.79-1.765-1.764-1.765h-1.618c-0.974,0-1.764,0.79-1.764,1.765v4.043
		H-200.602z"/>
	<path fill="#666666" d="M-140.478,429.213v-4.043c0-0.975,0.79-1.765,1.764-1.765h1.618c0.974,0,1.764,0.79,1.764,1.765v4.043
		H-140.478z"/>
	<rect x="-202.846" y="386.098" fill="#999999" width="3.773" height="0.973"/>
	<rect x="-142.064" y="386.098" fill="#999999" width="3.774" height="0.973"/>
	<rect x="-143.837" y="384.511" fill="#666666" width="2.859" height="4.003"/>
	<rect x="-200.101" y="384.583" fill="#666666" width="2.859" height="4.002"/>
</g>
<g>
	<g>
		<path fill="#4F4F4F" d="M-271.687,432.926v-17.653h-12.843c0,0-1.987,6.713-2.477,9.414c-0.621,3.416-0.94,6.272-1.106,8.239
			H-271.687z"/>
		<path fill="#333333" d="M-255.274,432.926c-0.166-1.967-0.486-4.823-1.106-8.239c-0.491-2.701-2.478-9.414-2.478-9.414h-12.843
			v17.653H-255.274z"/>
	</g>
	<path fill="#F4B073" d="M-228.974,374.462c-0.18-1.646-0.471-3.501-1.134-4.974c-0.725-1.609-2.037-2.932-3.033-4.38
		c-0.391-0.567-2.504-3.74-3.098-4.581c-0.694-0.984-1.414-1.943-2.172-2.872c-1.257-1.539-3.174-6.093-4.476-6.559
		c-0.949-0.338-1.913-0.477-2.924-0.402c-2.387,0.175-4.7-0.627-6.367,1.52c-1.522,1.961-1.122,5.516,0.607,7.241
		c0.648,0.646,1.705,0.967,2.52,1.001c0.57,0.023,0.939-0.02,1.207-0.513c0.107-0.197-0.009-0.442,0.099-0.644
		c0.424-0.027,2.095-0.453,2.907-1.123c1.399,1.367,1.816,3.663,2.251,5.507c0.493,2.09,0.884,4.238,1.618,6.264
		c0.443,1.221,1.089,2.46,1.922,3.547c-1.192-0.335-2.469-0.43-3.642-0.316c-2.179,0.211-4.018,1.333-6.022,2.117
		c-1.852-0.873-3.797-1.86-5.684-1.971c-2.606-0.152-4.711,0.84-7.201,1.129c-0.359,0.042-0.709,0.001-1.032-0.069
		c-4.031-1.702-3.237-7.185-3.237-7.185l-5.917,0.03l-5.725-0.03c0,0,0.141,4.369-2.536,6.654c-0.273,0.233-1.286,0.719-2.309,0.6
		c-2.49-0.289-4.594-1.281-7.201-1.129c-1.887,0.11-3.832,1.098-5.684,1.971c-2.004-0.784-3.842-1.906-6.021-2.117
		c-1.173-0.113-2.45-0.019-3.642,0.316c0.833-1.087,1.479-2.326,1.922-3.547c0.734-2.025,1.125-4.174,1.618-6.264
		c0.435-1.844,0.852-4.14,2.251-5.507c0.812,0.67,2.483,1.096,2.907,1.123c0.107,0.201-0.008,0.446,0.099,0.644
		c0.268,0.493,0.636,0.536,1.207,0.513c0.815-0.034,1.873-0.355,2.521-1.001c1.729-1.726,2.129-5.28,0.607-7.241
		c-1.667-2.146-3.98-1.345-6.367-1.52c-1.011-0.074-1.976,0.064-2.924,0.402c-1.302,0.466-3.219,5.02-4.477,6.559
		c-0.759,0.929-1.478,1.888-2.172,2.872c-0.593,0.841-2.707,4.014-3.098,4.581c-0.997,1.448-2.308,2.771-3.033,4.38
		c-0.664,1.473-0.955,3.328-1.134,4.974c-0.264,2.422-0.951,4.352-0.395,5.212c1.042,1.613,2.869,2.454,4.462,3.454
		c0.229,0.144,5.299,3.848,7.656,4.794c5.465,2.192,9.707-1.318,10.584,2.192c1.301,5.204,3.803,7.898,6.729,11.995
		c1.365,1.911,1.444,11.311,1.417,13.163h25.668c-0.018-1.184-0.098-7.736,0.303-11.801c0.152-0.59,0.328-1.07,0.537-1.362
		c2.925-4.097,5.428-6.791,6.729-11.995c0.878-3.511,5.12,0,10.584-2.192c2.357-0.946,7.427-4.65,7.656-4.794
		c1.593-1,3.42-1.841,4.462-3.454C-228.023,378.813-228.71,376.884-228.974,374.462z"/>
	<path fill="#E59A5C" d="M-253.224,387.335c-0.604,2.249-1.975,6.802-8.076,7.763c-6.991,1.101-9.3-1.313-9.3-1.313
		s-0.046,2.293,3.662,3.149c4.317,0.996,9.201-0.173,11.343-2.521C-253.992,392.655-252.566,389.145-253.224,387.335z"/>
	<path fill="#E59A5C" d="M-290.787,387.335c0.603,2.249,1.975,6.802,8.076,7.763c6.99,1.101,9.299-1.313,9.299-1.313
		s0.046,2.293-3.662,3.149c-4.317,0.996-9.2-0.173-11.342-2.521C-290.019,392.655-291.445,389.145-290.787,387.335z"/>
	<g>
		<g>
			<path fill="#F9C38A" d="M-261.509,357.743c-0.513-1.284-1.646-0.478-1.646-0.479c0.133-0.826,1.389-9.063-2.547-11.287
				c-2.067-1.169-4.971-1.207-5.981-1.2l-0.003-0.056c-0.291,0.014-3.555-0.121-5.99,1.256c-3.937,2.225-2.68,10.461-2.547,11.287
				c0,0.002-1.133-0.805-1.646,0.479c-0.445,1.111-0.002,3.26,0.77,3.894c0.357,0.294,1.179,0.369,1.435,0.511
				c0.387,1.896,0.602,3.897,1.732,5.479c1.887,2.642,5.5,2.816,6.361,2.816c0.338,0.039,3.534,0.313,6.127-2.816
				c1.241-1.497,1.345-3.584,1.732-5.479c0.256-0.142,1.077-0.217,1.435-0.511C-261.507,361.003-261.064,358.854-261.509,357.743z"
				/>
			<path fill="#E59A5C" d="M-280.24,358.568l0.248,2.013c0,0-0.703-0.372-0.827-1.31
				C-280.893,358.708-280.695,358.348-280.24,358.568z"/>
			<path fill="#E59A5C" d="M-263.085,358.568l-0.249,2.013c0,0,0.703-0.372,0.827-1.31
				C-262.432,358.708-262.63,358.348-263.085,358.568z"/>
		</g>
		<path fill="#582A1A" d="M-262.11,348.372c-0.428-3.723-3.372-4.994-8.943-5.349c-0.213-0.014-0.423-0.021-0.634-0.03v-0.001
			c-0.001,0-0.002,0-0.004,0c-0.001,0-0.002,0-0.004,0v0.001c-0.21,0.009-0.421,0.017-0.634,0.03
			c-5.571,0.354-8.515,1.626-8.943,5.349c-0.234,2.038-0.128,5.05,0.299,8.644l0.748,0.248c0,0,0.437-5.981,1.806-6.895
			s2.325,0.1,6.433,0.1c0.101,0,0.197-0.002,0.295-0.003c0.099,0.001,0.195,0.003,0.296,0.003c4.108,0,5.063-1.013,6.433-0.1
			s1.806,6.895,1.806,6.895l0.748-0.248C-261.981,353.422-261.875,350.41-262.11,348.372z"/>
	</g>
	<ellipse fill="#E2995D" cx="-271.688" cy="412.31" rx="0.562" ry="0.887"/>
</g>
<g>
	<g>
		<polygon fill="#999999" points="77.41,299.354 30.436,299.354 29.395,304.606 77.41,304.606 		"/>
		<polygon fill="#666666" points="25.35,299.354 24.883,301.307 24.883,304.606 29.395,304.606 30.436,299.354 		"/>
	</g>
	<g>
		<path fill="#666666" d="M6.724,294.322c-0.749,2.945-1.268,8.088-1.268,8.088c0,1.2,0.974,2.174,2.174,2.174h13.683l2.335-12.057
			c-4.933-0.545-9.472-1.003-14.568-0.351C8.125,292.298,7.177,292.539,6.724,294.322z"/>
		<polygon fill="#999999" points="31.177,255.136 23.647,292.527 21.313,304.584 26.985,304.584 29.094,293.702 36.248,256.222 		
			"/>
	</g>
	<polygon fill="#666666" points="93.667,304.584 74.829,304.584 74.829,296.977 91.131,296.977 	"/>
	<path fill="#666666" d="M65.954,255.316c0,1.2-0.974,2.174-2.174,2.174H14.693c-1.2,0-2.173-0.974-2.173-2.174v-0.543
		c0-1.201,0.973-2.174,2.173-2.174H63.78c1.2,0,2.174,0.973,2.174,2.174V255.316z"/>
	
		<rect x="15.656" y="237.717" transform="matrix(0.6702 -0.7422 0.7422 0.6702 -177.5588 94.8328)" fill="#666666" width="4.527" height="18.954"/>
	
		<rect x="12.373" y="246.532" transform="matrix(0.7068 0.7074 -0.7074 0.7068 180.7356 64.051)" fill="#666666" width="1.46" height="7.03"/>
	<path fill="#999999" d="M29.094,251.693H9.215c-1.2,0-2.174,0.974-2.174,2.174v2.31c0,1.2,0.974,2.174,2.174,2.174h19.879V251.693z
		"/>
	<path fill="#666666" d="M18.135,306.182c0,0.51-0.413,0.922-0.922,0.922h-1.729c-0.509,0-0.922-0.412-0.922-0.922v-4.38
		c0-0.509,0.413-0.922,0.922-0.922h1.729c0.509,0,0.922,0.413,0.922,0.922V306.182z"/>
	<path fill="#666666" d="M86.598,306.182c0,0.51-0.413,0.922-0.922,0.922h-1.729c-0.509,0-0.922-0.412-0.922-0.922v-4.38
		c0-0.509,0.413-0.922,0.922-0.922h1.729c0.509,0,0.922,0.413,0.922,0.922V306.182z"/>
</g>
<g>
	<g>
		<circle fill="#4F4F4F" cx="-85.526" cy="244.5" r="4.184"/>
		<g>
			<path fill="#F4B073" d="M-32.47,286.452c-0.292-2.34-1.792-5.156-3.401-9.105c-1.688-4.146-5.393-7.107-6.144-9.545
				c-0.967-3.143-3.794-5.599-8.328-5.401c-0.058,0.003-0.517,0.021-0.574,0.023c-0.383,1.929-0.82,6.543,0.862,10.554
				c0.614,1.467,1.452,3.373,2.005,4.68c0.409-1.784,0.803-3.53,0.803-3.53c1.056,2.287,4.546,8.4,7.573,11.594
				c-2.779,2.926-3.804,4.535-7.46,11.118c-0.285,0.512-2.323,2.401-2.414,2.998c-0.245,1.605,0.787,9.609,2.706,9.436
				c1.207-0.11,2.706-0.622,3.949-2.085c0.285-0.334,0-1.535-2.742-0.219c0.768-1.427,1.207-4.06,0.768-5.705
				c2.048-2.926,6.883-6.38,9.106-10.313C-34.335,288.428-32.543,287.842-32.47,286.452z"/>
			<path fill="#F4B073" d="M-71.477,262.403c-0.058-0.002-0.109,0-0.167-0.003c-3.273-0.143-6.55,1.255-9.585,2.661
				c-2.74,0.568-4.847-0.574-9.132,1.056c0.269-0.526,0.516-1.495,0.777-2.613c0.845-3.129,1.765-7,2.729-10.245
				c0.257-0.01,1.302-0.177,1.805-0.564c0.678-0.522,0.521-0.285,0.736,0.172c0.49,1.035,2.209-0.876,3.768-3.159
				s0.289-3.867-2.568-4.369c-2.856-0.502-3.164-1.03-5.045,2.227c-0.692,1.199-5.657,10.553-7.347,14.457
				c-0.143,0.329-2.94,6.583-2.717,9.394c0.095,1.182,1.774,1.928,4.401,2.188c1.797,0.178,5.921,0.821,9.567,0.233
				c3.224-0.52,4.883-0.836,7.475-0.588c0.033,0.013,0.063,0.027,0.096,0.039c1.536,0.549,2.236,2.289,2.645,4.073
				c0.554-1.307,1.264-2.986,1.878-4.453C-70.478,268.896-71.093,264.332-71.477,262.403z"/>
			<g>
				<path fill="#F0851D" d="M-60.996,285.666h0.012V267.36c-0.021-0.001-0.038,0.003-0.059,0.002
					c-4.227,0.122-5.257-4.03-5.504-5.833c-1.084,0.549-2.658,0.95-4.93,0.874c0.384,1.929,0.999,6.493-0.684,10.504
					c-0.614,1.467-1.324,3.146-1.878,4.453c0.305,1.329,0.674,2.843,1.034,4.084c0.424,1.46,0.995,2.842,1.541,4.222h10.373H-60.996
					z"/>
				<path fill="#F4B073" d="M-57.381,259.117c0,0-0.004,0.016-0.011,0.046c-0.53-1.926,0.103-4.188,0.103-4.188l-3.56,0.702
					l-0.136-0.027l-3.424-0.675c0,0,0.747,2.668-0.063,4.677c-0.287,0.507-0.892,1.277-2.076,1.877
					c0.247,1.803,1.277,5.955,5.504,5.833c0.021,0.001,0.038-0.003,0.059-0.002c4.38,0.084,5.291-4.449,5.477-6.075
					C-57.06,260.33-57.381,259.117-57.381,259.117z"/>
				<path fill="#F4B073" d="M-51.99,291.952c0.181-1.992,0.845-4.255,1.5-6.286h-10.494h-0.012h-0.094h-10.373
					c0.755,1.909,1.459,3.813,1.648,5.91c0.312,3.447-2.146,6.099-3.46,10.695l10.921,0.146v0.041l1.369-0.019l0.178-0.002
					l1.546,0.021l0.001-0.041l10.649-0.146C-49.924,297.675-52.301,295.398-51.99,291.952z"/>
				<path fill="#E8721B" d="M-60.984,267.36v18.306h10.494c0.532-1.651,1.06-3.149,1.314-4.222c0.221-0.924,0.71-2.502,1.182-3.957
					c-0.561-1.323-1.296-3.064-1.932-4.58c-1.679-4.002-1.069-8.557-0.686-10.492c-2.334,0.011-3.879-0.504-4.896-1.13
					C-55.693,262.911-56.604,267.444-60.984,267.36z"/>
			</g>
			<g>
				<path fill="#582A1A" d="M-70.197,245.066c1.55,0.92,3.488,1.327,5.193,1.803c2.498,0.697,5.184,0.935,7.737,0.371
					c2.132-0.47,4.975-1.289,6.155-3.31c1.021-1.747,0.379-6.199,0.06-7.135c-1.326-3.897-2.652-5.018-5.825-5.134
					c-1.384-1.845-3.453-2.175-5.018-2.134c-4.383,0.115-7.629,2.933-9.458,8.306C-71.541,238.387-72.371,243.028-70.197,245.066z"
					/>
				<path fill="#F9C38A" d="M-50.94,244.093c-0.354-0.638-0.857-0.732-1.208-0.634c-0.022,0.01-0.967-3.07-1.616-5.318
					c-2.238-1.05-4.387-1.946-6.909-2.151v-0.048c-0.365-0.021-1.07-0.011-1.454,0c-1.568,0.044-3.16,0.086-4.703,0.394
					c-0.392,0.078-0.783,0.187-1.174,0.198c-0.465,2.542-1.32,7.012-1.623,6.946c0,0.002-0.026-0.002-0.039-0.007
					c-0.04-0.01-0.068-0.021-0.103-0.031c-0.336-0.078-0.729,0.003-1.04,0.567c-0.592,1.07,0,3.154,0.788,3.802
					c0.365,0.3,0.703,0.513,0.964,0.657c0.396,1.936,1.036,3.752,2.073,4.863c2.656,2.846,5.077,3.453,5.778,3.574
					c0.052,0.009,0.13,0.016,0.201,0.021v0.008c0.001,0,0.009,0.001,0.009,0.001s0.033-0.003,0.084-0.01
					c0.477-0.063,3.12-0.535,5.976-3.595c0.999-1.07,1.632-2.801,2.032-4.667c0.271-0.135,0.701-0.379,1.175-0.769
					C-50.94,247.247-50.35,245.163-50.94,244.093z"/>
				<path fill="#582A1A" d="M-51.985,238.641c0.115-1.614-2.884-5.248-4.729-4.844c-0.242,0.053-0.621,0.271-0.992,0.587
					c-1.318-0.579-3.918-1.365-7.428-0.703c-5.19,0.98-4.738,9.391-4.738,9.391s7.737-2.258,10.198-4.854
					c-0.673,2.192-4.326,3.364-4.326,3.364s2.423,0.27,4.307-1.364c0.769-0.667,1.337-1.284,1.768-1.849
					c1.325,1.741,3.828,3.526,5.874,4.846C-50.922,241.4-52.101,240.256-51.985,238.641z"/>
				<g>
					<path fill="#E59A5C" d="M-69.76,244.812l0.253,2.056c0,0-0.718-0.38-0.845-1.338C-70.428,244.954-70.225,244.586-69.76,244.812
						z"/>
					<path fill="#E59A5C" d="M-52.343,244.812l-0.253,2.056c0,0,0.718-0.38,0.845-1.338
						C-51.675,244.954-51.878,244.586-52.343,244.812z"/>
				</g>
			</g>
			<ellipse fill="#E2995D" cx="-60.959" cy="298.415" rx="0.562" ry="0.887"/>
		</g>
		<circle fill="#4F4F4F" cx="-83.622" cy="252.202" r="4.184"/>
	</g>
	<g>
		<path fill="#4F4F4F" d="M-72.465,310.428c-0.225,2.466-0.696,6.127-1.073,8.907h12.513v-17.063h-12.307
			c-0.429,1.098-0.823,2.378-1.184,3.753C-73.585,306.379-72.191,307.412-72.465,310.428z"/>
		<path fill="#333333" d="M-48.548,319.335c-0.377-2.78-0.849-6.441-1.073-8.907c-0.285-3.14,1.236-4.13,2.162-4.443
			c-0.354-1.36-0.743-2.625-1.168-3.713h-12.398v17.063H-48.548z"/>
		<path fill="#F0851D" d="M-73.538,319.335c0.377-2.78,0.849-6.441,1.073-8.907c0.273-3.016-1.12-4.049-2.051-4.403
			c-1.146,4.374-1.95,9.718-2.41,13.311H-73.538z"/>
		<path fill="#E8721B" d="M-48.548,319.335h3.462c-0.45-3.604-1.232-8.97-2.373-13.351c-0.926,0.313-2.447,1.304-2.162,4.443
			C-49.396,312.894-48.925,316.555-48.548,319.335z"/>
	</g>
</g>
<g>
	<path fill="#4DBFD9" d="M-123.848,275.091c0,0.491-0.397,0.889-0.888,0.889h-92.528c-0.491,0-0.889-0.397-0.889-0.889v-0.849
		c0-0.49,0.398-0.889,0.889-0.889h92.528c0.491,0,0.888,0.398,0.888,0.889V275.091z"/>
	<g>
		<g>
			<path fill="#4F4F4F" d="M-209.283,266.931v14.968c0,1.358,0.892,2.46,1.992,2.46l0.123-0.019l-0.031-19.368l-0.091-0.033
				C-208.391,264.938-209.283,265.83-209.283,266.931z"/>
			<path fill="#666666" d="M-207.292,264.938v19.315v0.104c1.1,0,1.992-1.102,1.992-2.46v-14.968
				C-205.3,265.83-206.191,264.938-207.292,264.938z"/>
		</g>
		<g>
			<path fill="#4F4F4F" d="M-213.225,266.931v14.968c0,1.358,0.892,2.46,1.992,2.46l0.123-0.019l-0.032-19.368l-0.091-0.033
				C-212.333,264.938-213.225,265.83-213.225,266.931z"/>
			<path fill="#666666" d="M-211.233,264.938v19.315v0.104c1.1,0,1.992-1.102,1.992-2.46v-14.968
				C-209.242,265.83-210.133,264.938-211.233,264.938z"/>
		</g>
		<g>
			<path fill="#4F4F4F" d="M-136.793,266.931v14.968c0,1.358,0.892,2.46,1.992,2.46l0.102-0.026l-0.04-19.36l-0.063-0.033
				C-135.901,264.938-136.793,265.83-136.793,266.931z"/>
			<path fill="#666666" d="M-134.801,264.938v19.42c1.1,0,1.991-1.102,1.991-2.46v-14.968
				C-132.81,265.83-133.702,264.938-134.801,264.938z"/>
		</g>
		<g>
			<path fill="#4F4F4F" d="M-132.851,266.931v14.968c0,1.358,0.892,2.46,1.992,2.46l0.102-0.026l-0.04-19.36l-0.063-0.033
				C-131.959,264.938-132.851,265.83-132.851,266.931z"/>
			<path fill="#666666" d="M-130.859,264.938v19.42c1.1,0,1.992-1.102,1.992-2.46v-14.968
				C-128.868,265.83-129.759,264.938-130.859,264.938z"/>
		</g>
		<g>
			<path fill="#4F4F4F" d="M-203.201,263.26l-0.082-0.018c-1.116,0.015-2.018,0.922-2.018,2.042v3.05v0.183v15.016
				c0,1.384,0.901,2.504,2.018,2.522l0.082-0.019V263.26z"/>
			<path fill="#666666" d="M-203.256,263.24c-0.009,0-0.017,0.002-0.026,0.002v22.813c0.009,0,0.018,0.003,0.026,0.003
				c1.129,0,2.044-1.131,2.044-2.525v-18.248C-201.212,264.155-202.127,263.24-203.256,263.24z"/>
		</g>
		<g>
			<path fill="#4F4F4F" d="M-140.881,265.284v18.248c0,1.384,0.901,2.505,2.018,2.522l0.069-0.011l0.024-22.784l-0.093-0.018
				C-139.979,263.257-140.881,264.164-140.881,265.284z"/>
			<path fill="#666666" d="M-138.837,263.24c-0.009,0-0.018,0.002-0.026,0.002v22.813c0.009,0,0.017,0.003,0.026,0.003
				c1.129,0,2.044-1.131,2.044-2.525v-18.248C-136.793,264.155-137.708,263.24-138.837,263.24z"/>
		</g>
	</g>
</g>
<g>
	<g>
		<path fill="#F9B256" d="M-285.9,278.244c-2.563,0-4.924-2.107-5.047-2.218c-0.338-0.308-0.364-0.829-0.057-1.168
			c0.306-0.337,0.83-0.365,1.168-0.061c0.029,0.026,2.931,2.602,5.077,1.53c0.499-0.249,1.199-1.133,1.215-2.143
			c0.02-1.21-0.91-2.359-2.688-3.322c-5.214-2.825-11.76-8.684-13.044-15.896c-1.013-5.686,1.66-7.817,2.855-8.47
			c2.056-1.119,4.681-0.799,6.387,0.784c3.301,3.065,1.11,7.892,1.014,8.096c-0.191,0.414-0.683,0.595-1.099,0.401
			c-0.414-0.192-0.593-0.685-0.402-1.098l0,0c0.018-0.039,1.773-3.944-0.64-6.187c-1.171-1.087-3.051-1.315-4.467-0.543
			c-1.863,1.016-2.599,3.467-2.019,6.725c1.182,6.634,7.312,12.082,12.204,14.732c2.977,1.611,3.576,3.503,3.555,4.805
			c-0.028,1.675-1.092,3.077-2.13,3.596C-284.638,278.118-285.275,278.244-285.9,278.244z"/>
		<path fill="#F0851D" d="M-261.239,278.244c2.563,0,4.924-2.107,5.047-2.218c0.338-0.308,0.364-0.829,0.057-1.168
			c-0.306-0.337-0.829-0.365-1.168-0.061c-0.029,0.026-2.931,2.602-5.077,1.53c-0.499-0.249-1.199-1.133-1.215-2.143
			c-0.02-1.21,0.91-2.359,2.688-3.322c5.214-2.825,11.76-8.684,13.044-15.896c1.013-5.686-1.66-7.817-2.855-8.47
			c-2.057-1.119-4.682-0.799-6.387,0.784c-3.301,3.065-1.11,7.892-1.015,8.096c0.191,0.414,0.683,0.595,1.099,0.401
			c0.414-0.192,0.594-0.685,0.402-1.098l0,0c-0.018-0.039-1.773-3.944,0.64-6.187c1.171-1.087,3.051-1.315,4.467-0.543
			c1.863,1.016,2.599,3.467,2.019,6.725c-1.182,6.634-7.313,12.082-12.204,14.732c-2.977,1.611-3.576,3.503-3.555,4.805
			c0.028,1.675,1.092,3.077,2.13,3.596C-262.501,278.118-261.864,278.244-261.239,278.244z"/>
		<path fill="#F9B256" d="M-286.355,299.006c-0.294,0.308-0.414,1.655-0.414,1.655l13.245,0.069v-54.498h-15
			c0,0.104-0.004,0.206-0.004,0.311c0,13.062,3.66,24.322,8.943,29.521c0.556,0.547,3.198,2.521,3.268,5.626
			c0.031,1.386-2.104,1.138-2.104,2.38c0,1.448,1.966,1.345,2,3.173c0.021,1.146,0.026,6.166,0,8.451
			C-276.441,297.452-284.706,297.279-286.355,299.006z"/>
		<path fill="#F0851D" d="M-260.697,299.044c0.294,0.309,0.414,1.656,0.414,1.656l-13.245,0.068v-54.497h15
			c0,0.104,0.004,0.206,0.004,0.31c0,13.063-3.66,24.323-8.943,29.522c-0.556,0.547-3.198,2.521-3.267,5.626
			c-0.031,1.386,2.104,1.138,2.104,2.38c0,1.448-1.966,1.345-2.001,3.173c-0.021,1.146-0.026,6.166,0,8.45
			C-270.611,297.49-262.347,297.318-260.697,299.044z"/>
		<circle fill="#FBD099" cx="-273.575" cy="258.305" r="5.312"/>
		<g>
			<path fill="#FFFFFF" d="M-275.388,260.097h1.411v-4.152h-1.162v-0.715c0.626-0.119,1.063-0.278,1.46-0.517h0.854v5.384h1.242
				v0.934h-3.805V260.097z"/>
		</g>
	</g>
	<g>
		<path fill="#893E29" d="M-273.502,309.802h-13.967v-7.071h13.967v-2.139h-18.003c-0.458,0-0.828,0.371-0.828,0.828v9.52h18.831
			V309.802z"/>
		<polygon fill="#893E29" points="-292.333,310.939 -295.162,310.939 -295.162,313.147 -273.502,313.147 -273.502,312.043 
			-273.502,310.939 		"/>
		<rect x="-287.47" y="302.73" fill="#FBD099" width="13.967" height="7.071"/>
		<path fill="#582A1A" d="M-259.669,302.73v7.071h-13.833v1.138h18.697v-9.52c0-0.457-0.371-0.828-0.828-0.828h-17.869v2.139
			H-259.669z"/>
		<polygon fill="#582A1A" points="-254.806,310.939 -273.502,310.939 -273.502,312.043 -273.502,313.147 -251.978,313.147 
			-251.978,310.939 		"/>
		<rect x="-273.502" y="302.73" fill="#F9B256" width="13.833" height="7.071"/>
	</g>
</g>
<g>
	<g>
		<path fill="#4F4F4F" d="M50.252,210.026v-17.653H37.409c0,0-1.987,6.712-2.478,9.414c-0.62,3.417-0.94,6.273-1.106,8.239H50.252z"
			/>
		<path fill="#333333" d="M66.665,210.026c-0.166-1.966-0.486-4.823-1.106-8.239c-0.49-2.701-2.478-9.414-2.478-9.414H50.238v17.653
			H66.665z"/>
	</g>
	<path fill="#F4B073" d="M81.234,176.135c-0.856-1.455-0.6-2.995-2.226-6.461c-1.397-2.98-4.224-6.108-4.792-8.772
		c-0.685-3.209-2.824-6.204-6.071-7.445c-2.199-0.84-6.706-0.827-8.624-1.875c-3.618-1.976-3.447-7.282-3.447-7.282l-5.917,0.031
		l-5.725-0.031c0,0,0.171,5.306-3.446,7.282c-1.919,1.048-6.426,1.035-8.624,1.875c-3.248,1.241-5.388,4.236-6.072,7.445
		c-0.568,2.664-3.394,5.792-4.792,8.772c-1.626,3.466-1.369,5.006-2.226,6.461c-1.27,2.158-2.584,4.819-1.711,8.558
		c0.947,4.062,3.772,6.931,5.99,8.724c0.056,0.045,0.273,0.214,0.332,0.262c-0.439-1.29,0.201-2.829,0.642-3.658
		c0.728-1.37,1.497-0.92,2.182-1.391c0.666-0.458,0.397-1.562,0.899-1.444c0.005-0.053,0.475-5.29-0.632-7.969
		c3.038-2.824,5.135-6.547,6.504-10.27c1.198,3.423,1.712,5.819,3.081,8.729c1,2.125,0.888,12.845,0.86,14.698h12.64h0.192h12.837
		c-0.024-1.565-0.158-12.537,0.858-14.698c1.369-2.91,1.883-5.306,3.081-8.729c1.369,3.723,3.466,7.445,6.504,10.27
		c-1.106,2.68-2.741,12.152-3.769,16.944c-2.246-0.141-3.411-0.797-5.363,1.027c-1.243,1.163-2.092,2.992-3.095,3.69
		c-1.583,1.103-0.62,1.287,0.129,1.331c1.939,0.114,4.449-3.651,4.336-2.396c-0.052,0.565-0.456,2.021-1.37,3.081
		c-0.913,1.059-2.51,1.141-2.624,1.826c-0.104,0.629,0.456,0.799,1.142,0.856c0.364,0.437,0.605,0.959,1.597,0.97
		c0.799,0.457,2.628,0.821,3.651,0.685c3.424-0.457,4.793-3.366,5.705-6.162c0.399-1.221,7.269-12.826,8.216-16.887
		C82.959,180.44,82.504,178.293,81.234,176.135z"/>
	<path fill="#E59A5C" d="M26.404,187.174c-0.622,0.551-1.419,1.145-2.146,2.514c-0.44,0.83-0.846,2.679-0.406,3.969
		c0.566,0.438,1.231,1.015,2.481,0.664c0.704-0.198,0.743,0.485,1.626,0.599c0.613,0.079,0.849-0.137,1.434-0.171
		c0.354-0.021,0.514,0.471,1.305,0.428c1.874-0.101,4.021-5.573,2.554-7.103c-0.343-0.356-0.944-0.25-1.17-0.242
		c-0.229-0.342-0.436-0.579-0.941-0.756c-0.264-0.093-0.842-0.015-1.127,0.185c-0.456-0.584-1.298-0.542-1.812,0.015
		C27.76,186.761,27.089,186.568,26.404,187.174z"/>
	<path fill="#E59A5C" d="M24.807,187.174c-0.998-0.028-1.232-0.257-2.682-0.028c-1.084,0.171-0.884,2.424-0.884,2.424
		s0.598-0.441,1.483-0.713c0.625-0.192,1.467-0.153,2.025-0.457C25.748,187.859,25.419,187.192,24.807,187.174z"/>
	<g>
		<path fill="#E59A5C" d="M33.479,164.896c0,0,0.052,6.478,6.39,7.303c7.018,0.913,9.3-1.312,9.3-1.312s-0.114,1.997-3.822,2.853
			c-4.317,0.996-10.041,0.742-11.183-2.225C33.022,168.547,32.908,166.493,33.479,164.896z"/>
		<path fill="#E59A5C" d="M67.028,164.896c0,0-0.051,6.478-6.39,7.303c-7.018,0.913-9.3-1.312-9.3-1.312s0.114,1.997,3.822,2.853
			c4.317,0.996,10.041,0.742,11.183-2.225C67.484,168.547,67.599,166.493,67.028,164.896z"/>
	</g>
	<g>
		<g>
			<path fill="#F9C38A" d="M60.43,134.844c-0.514-1.284-1.646-0.478-1.646-0.479c0.133-0.826,1.389-9.063-2.548-11.288
				c-2.061-1.165-4.953-1.206-5.973-1.2l-0.012-0.056c-0.291,0.014-3.555-0.121-5.99,1.255c-3.937,2.225-2.681,10.461-2.548,11.288
				c0.001,0.002-1.132-0.804-1.646,0.479c-0.444,1.111-0.002,3.259,0.771,3.894c0.357,0.294,1.179,0.369,1.434,0.511
				c0.388,1.895,0.602,3.896,1.732,5.479c2.14,2.995,6.193,2.808,6.243,2.802l0.002-0.011v0.011c0.05,0.006,0.083,0.01,0.083,0.01
				s3.419,0.497,6.16-2.812c1.241-1.498,1.345-3.584,1.732-5.479c0.255-0.142,1.076-0.217,1.434-0.511
				C60.432,138.103,60.874,135.955,60.43,134.844z"/>
			<path fill="#E59A5C" d="M41.699,135.668l0.248,2.013c0,0-0.703-0.373-0.827-1.31C41.046,135.809,41.244,135.448,41.699,135.668z"
				/>
			<path fill="#E59A5C" d="M58.854,135.668l-0.248,2.013c0,0,0.703-0.373,0.827-1.31C59.507,135.809,59.309,135.448,58.854,135.668z
				"/>
		</g>
		<path fill="#582A1A" d="M59.829,125.473c-0.428-3.722-3.372-4.994-8.943-5.348c-0.213-0.014-0.423-0.022-0.634-0.031v0
			c-0.001,0-0.003,0-0.004,0s-0.002,0-0.004,0v0c-0.211,0.009-0.421,0.018-0.634,0.031c-5.571,0.354-8.516,1.626-8.943,5.348
			c-0.233,2.038-0.128,5.049,0.3,8.644l0.747,0.248c0,0,0.437-5.982,1.806-6.895c1.37-0.913,2.325,0.1,6.433,0.1
			c0.102,0,0.197-0.002,0.296-0.002c0.1,0,0.195,0.002,0.296,0.002c4.107,0,5.063-1.013,6.433-0.1
			c1.369,0.913,1.806,6.895,1.806,6.895l0.747-0.248C59.957,130.522,60.063,127.511,59.829,125.473z"/>
	</g>
	<g>
		<path fill="#4F4F4F" d="M22.107,192.029c0.553-0.424,1.125-0.755,1.705-1.017c0.315-1.212,1.073-2.487,2.007-3.295
			c-1.89,0.341-4.178,1.254-5.797,2.837c-1.254,1.227-2.036,3.498-2.352,5.949h2.854C20.558,194.808,20.901,192.956,22.107,192.029z
			"/>
		<path fill="#4F4F4F" d="M35.787,192.61c-0.363-0.829-1.82-2.756-2.052-2.94c-0.014,0.927-0.3,2.168-0.813,3.195
			c0.62,0.992,0.852,2.359,0.91,3.637h2.959C36.609,195.091,36.28,193.737,35.787,192.61z"/>
		<path fill="#F0851D" d="M17.683,201.54c0.618,4.271,0.763,5.442,1.831,8.036c1.04,2.527,3.929,3.357,7.629,3.357
			c0.03,0,0.061,0,0.091-0.001c0.03,0,0.061,0.001,0.091,0.001c3.7,0,6.589-0.83,7.629-3.357c1.068-2.594,1.213-3.765,1.831-8.036
			c0.229-1.578,0.226-3.349,0.008-5.038h-2.959c0.087,1.878-0.202,3.563-0.202,3.563c-1.608-1.17-3.418-2.143-6.386-2.222v-0.001
			c-0.004,0-0.008,0.001-0.012,0.001s-0.007,0-0.012-0.001v0.001c-2.968,0.08-4.776,1.052-6.386,2.222c0,0-0.348-1.684-0.312-3.563
			h-2.854C17.453,198.191,17.454,199.963,17.683,201.54z"/>
	</g>
	<ellipse fill="#E2995D" cx="50.251" cy="189.41" rx="0.562" ry="0.887"/>
</g>
<g>
	<path fill="#999999" d="M-44.883,161.714c-0.67-0.615-1.381-1.182-2.113-1.704l3.796-3.994c0.259-0.272,0.689-0.283,0.961-0.025
		l2.095,1.991c0.272,0.259,0.283,0.689,0.025,0.961l-3.498,3.68C-44.015,162.301-44.441,162.001-44.883,161.714z"/>
	<g>
		<path fill="#666666" d="M-44.966,156.331c-0.272-0.259-0.283-0.689-0.024-0.961l2.693-2.834c0.259-0.272,0.689-0.283,0.961-0.024
			l0.281,0.267l-3.645,3.806L-44.966,156.331z"/>
		<polygon fill="#666666" points="-38.168,155.521 -41.813,159.327 -43.23,157.979 -39.643,154.12 		"/>
		<path fill="#666666" d="M-36.715,156.902c0.272,0.259,0.283,0.689,0.024,0.961l-2.693,2.834c-0.259,0.272-0.688,0.283-0.961,0.024
			l-1.145-1.087l3.646-3.806L-36.715,156.902z"/>
		<polygon fill="#666666" points="-40.73,153.086 -40.096,153.689 -43.684,157.549 -44.375,156.892 		"/>
		
			<rect x="-42.464" y="157.354" transform="matrix(0.6917 -0.7221 0.7221 0.6917 -126.0703 19.8119)" fill="#CCCCCC" width="5.27" height="0.447"/>
		
			<rect x="-45.35" y="154.612" transform="matrix(-0.6917 0.7222 -0.7222 -0.6917 39.5682 292.7772)" fill="#CCCCCC" width="5.269" height="0.447"/>
		<polygon fill="#CCCCCC" points="-39.643,154.12 -43.23,157.979 -43.684,157.549 -40.096,153.689 		"/>
	</g>
	<path fill="#999999" d="M-77.936,161.714c0.67-0.615,1.38-1.182,2.112-1.704l-3.796-3.994c-0.259-0.272-0.688-0.283-0.961-0.025
		l-2.095,1.991c-0.272,0.259-0.283,0.689-0.024,0.961l3.497,3.68C-78.805,162.301-78.378,162.001-77.936,161.714z"/>
	<g>
		<path fill="#999999" d="M-61.393,199.252c-11.264,0-20.427-9.164-20.427-20.427s9.163-20.427,20.427-20.427
			s20.427,9.164,20.427,20.427S-50.129,199.252-61.393,199.252z M-61.393,159.166c-10.841,0-19.659,8.819-19.659,19.66
			c0,10.84,8.818,19.66,19.659,19.66s19.66-8.819,19.66-19.66C-41.732,167.985-50.552,159.166-61.393,159.166z"/>
	</g>
	<path fill="#999999" d="M-58.827,155.178c0,0.424-0.344,0.768-0.768,0.768h-3.26c-0.424,0-0.768-0.344-0.768-0.768v-8.918
		c0-0.424,0.344-0.768,0.768-0.768h3.26c0.424,0,0.768,0.344,0.768,0.768V155.178z"/>
	<path fill="#666666" d="M-61.393,153.7c-13.854,0-25.126,11.271-25.126,25.126c0,13.854,11.271,25.126,25.126,25.126
		s25.126-11.271,25.126-25.126C-36.267,164.971-47.538,153.7-61.393,153.7z M-39.479,178.825c0,12.083-9.83,21.914-21.913,21.914
		s-21.913-9.831-21.913-21.914c0-12.083,9.83-21.913,21.913-21.913S-39.479,166.743-39.479,178.825z"/>
	<g>
		<g>
			<rect x="-61.936" y="160.253" fill="#666666" width="0.767" height="4.028"/>
		</g>
		<g>
			<rect x="-61.936" y="193.371" fill="#666666" width="0.767" height="4.028"/>
		</g>
		<g>
			<g>
				<rect x="-46.943" y="178.442" fill="#666666" width="4.028" height="0.767"/>
			</g>
			<g>
				<rect x="-79.869" y="178.442" fill="#666666" width="4.027" height="0.767"/>
			</g>
		</g>
		<g>
			<g>
				
					<rect x="-47.473" y="184.965" transform="matrix(-0.4955 0.8686 -0.8686 -0.4955 91.9956 320.5218)" fill="#666666" width="0.767" height="4.028"/>
			</g>
			<g>
				
					<rect x="-76.078" y="168.658" transform="matrix(-0.4952 0.8688 -0.8688 -0.4952 35.1013 320.9487)" fill="#666666" width="0.767" height="4.028"/>
			</g>
		</g>
		<g>
			<g>
				
					<rect x="-53.251" y="190.895" transform="matrix(-0.8554 0.518 -0.518 -0.8554 1.8491 385.3026)" fill="#666666" width="0.767" height="4.028"/>
			</g>
			<g>
				
					<rect x="-70.302" y="162.728" transform="matrix(-0.8554 0.518 -0.518 -0.8554 -44.3782 341.8751)" fill="#666666" width="0.767" height="4.028"/>
			</g>
		</g>
		<g>
			<g>
				
					<rect x="-70.561" y="190.735" transform="matrix(-0.8458 -0.5335 0.5335 -0.8458 -232.3697 318.33)" fill="#666666" width="0.768" height="4.028"/>
			</g>
			<g>
				
					<rect x="-52.992" y="162.888" transform="matrix(-0.8461 -0.5331 0.5331 -0.8461 -185.0248 276.3745)" fill="#666666" width="0.768" height="4.028"/>
			</g>
		</g>
		<g>
			<g>
				
					<rect x="-76.226" y="184.699" transform="matrix(-0.4788 -0.8779 0.8779 -0.4788 -276.0772 209.5187)" fill="#666666" width="0.767" height="4.028"/>
			</g>
			<g>
				
					<rect x="-47.325" y="168.924" transform="matrix(-0.4788 -0.8779 0.8779 -0.4788 -219.4894 211.5652)" fill="#666666" width="0.767" height="4.028"/>
			</g>
		</g>
	</g>
	<path fill="#999999" d="M-61.297,135.806c-4.68,0-8.487,3.808-8.487,8.487s3.808,8.487,8.487,8.487
		c4.681,0,8.487-3.808,8.487-8.487S-56.616,135.806-61.297,135.806z M-61.297,151.629c-4.045,0-7.336-3.291-7.336-7.336
		c0-4.045,3.291-7.336,7.336-7.336c4.046,0,7.337,3.292,7.337,7.336C-53.96,148.338-57.251,151.629-61.297,151.629z"/>
	<polygon fill="#666666" points="-60.735,179.953 -65.287,175.667 -64.761,175.108 -60.099,179.498 -48.318,191.221 	"/>
	<polygon fill="#F0851D" points="-59.629,177.801 -64.354,181.895 -64.856,181.315 -60.017,177.122 -47.161,166.589 	"/>
	<circle fill="#666666" cx="-61.552" cy="178.89" r="1.63"/>
	<circle fill="#999999" cx="-61.552" cy="178.89" r="1.183"/>
	<g>
		<rect x="-59.362" y="141.943" fill="#666666" width="0.703" height="5.946"/>
		<path fill="#666666" d="M-64.821,141.943c-0.424,0-0.767,0.344-0.767,0.768v4.411c0,0.424,0.343,0.767,0.767,0.767h0.552v-5.946
			H-64.821z"/>
		<rect x="-63.934" y="141.943" fill="#666666" width="3.963" height="5.946"/>
		<path fill="#666666" d="M-57.628,141.943h-0.695v5.946h0.695c0.423,0,0.767-0.343,0.767-0.767v-4.411
			C-56.861,142.287-57.205,141.943-57.628,141.943z"/>
		<rect x="-64.27" y="141.943" fill="#CCCCCC" width="0.336" height="5.946"/>
		<rect x="-58.659" y="141.943" fill="#CCCCCC" width="0.336" height="5.946"/>
		<rect x="-59.971" y="141.943" fill="#CCCCCC" width="0.608" height="5.946"/>
	</g>
	<g>
		<path fill="#666666" d="M-77.854,156.331c0.272-0.259,0.283-0.689,0.024-0.961l-2.693-2.834c-0.259-0.272-0.688-0.283-0.961-0.024
			l-0.281,0.267l3.646,3.806L-77.854,156.331z"/>
		<polygon fill="#666666" points="-84.65,155.521 -81.006,159.327 -79.588,157.979 -83.177,154.12 		"/>
		<path fill="#666666" d="M-86.104,156.902c-0.271,0.259-0.283,0.689-0.024,0.961l2.693,2.834c0.259,0.272,0.689,0.283,0.962,0.024
			l1.144-1.087l-3.645-3.806L-86.104,156.902z"/>
		<polygon fill="#666666" points="-82.089,153.086 -82.724,153.689 -79.136,157.549 -78.444,156.892 		"/>
		
			<rect x="-85.625" y="157.354" transform="matrix(-0.6917 -0.7222 0.7222 -0.6917 -254.1982 206.6288)" fill="#CCCCCC" width="5.269" height="0.447"/>
		
			<rect x="-82.739" y="154.612" transform="matrix(0.6917 0.7221 -0.7221 0.6917 87.1203 105.5744)" fill="#CCCCCC" width="5.27" height="0.447"/>
		<polygon fill="#CCCCCC" points="-83.177,154.12 -79.588,157.979 -79.136,157.549 -82.724,153.689 		"/>
	</g>
</g>
<g>
	<g>
		<path fill="#4DBFD9" d="M-162.21,148.271c-1.634-0.008-2.965,1.31-2.973,2.943l-0.055,10.848c-0.008,1.634,1.31,2.965,2.943,2.974
			c0,0,1.914-0.006,2.551,0.013c1.24,0.037,2.014,1.153,2.036,2.811c-0.021,0.328-0.591,10.344-0.601,12.256
			c-0.015,2.913,0.486,11.59,0.486,11.59c-0.008,1.712-0.805,2.862-2.07,2.886c-0.638,0.013-2.551-0.013-2.551-0.013
			c-1.634-0.008-2.965,1.31-2.973,2.944l-0.055,10.848c-0.008,1.634,1.31,2.965,2.943,2.973l8.269,0.042v-63.074L-162.21,148.271z"
			/>
		<path fill="#1C90BF" d="M-143.283,208.482l0.055-10.848c0.008-1.634-1.31-2.965-2.944-2.974c0,0-1.519-0.034-2.024-0.01
			c-1.187,0.056-2.579-0.913-2.568-2.91c0,0,0.455-8.766,0.47-11.708c0.014-2.833-0.3-10.991-0.344-12.106
			c0.042-1.95,1.42-2.886,2.592-2.819c0.505,0.029,2.024,0.01,2.024,0.01c1.634,0.008,2.965-1.31,2.974-2.944l0.055-10.848
			c0.008-1.634-1.31-2.965-2.944-2.973l-8.32-0.042v63.074l8.002,0.04C-144.623,211.434-143.292,210.116-143.283,208.482z"/>
	</g>
	<g>
		<path fill="#4DBFD9" d="M-188.638,144.159c-1.607-0.293-3.148,0.773-3.441,2.38l-1.944,10.672
			c-0.292,1.607,0.773,3.148,2.38,3.441c0,0,1.886,0.328,2.51,0.458c1.214,0.252,1.782,1.486,1.515,3.122
			c-0.078,0.319-2.385,10.083-2.728,11.964c-0.522,2.865-1.542,11.498-1.542,11.498c-0.307,1.685-1.292,2.678-2.542,2.481
			c-0.63-0.099-2.51-0.457-2.51-0.457c-1.607-0.293-3.148,0.772-3.441,2.38l-1.944,10.672c-0.292,1.607,0.773,3.148,2.38,3.441
			l8.135,1.482l10.993-62.109L-188.638,144.159z"/>
		<path fill="#1C90BF" d="M-180.494,206.747l1.944-10.672c0.293-1.607-0.772-3.148-2.38-3.441c0,0-1.489-0.298-1.991-0.363
			c-1.178-0.152-2.38-1.349-2.022-3.313c0,0,1.976-8.552,2.503-11.448c0.508-2.787,1.62-10.875,1.771-11.98
			c0.381-1.912,1.901-2.594,3.043-2.324c0.492,0.117,1.991,0.363,1.991,0.363c1.607,0.293,3.148-0.773,3.441-2.38l1.944-10.672
			c0.293-1.607-0.772-3.148-2.38-3.441l-8.186-1.491l-10.993,62.109l7.873,1.434C-182.328,209.42-180.787,208.354-180.494,206.747z"
			/>
	</g>
</g>
<g>
	
		<rect x="-260.874" y="156.514" transform="matrix(0.9328 0.3603 -0.3603 0.9328 45.6422 105.1618)" fill="#999999" width="3.286" height="36.965"/>
	
		<rect x="-293.184" y="144.821" transform="matrix(0.9799 -0.1993 0.1993 0.9799 -39.4867 -54.7146)" fill="#999999" width="3.286" height="47.947"/>
	<path fill="#666666" d="M-283.845,208.618c4.269,0.103,11.377,0.111,15.358,0c1.056-0.029,2.083-0.444,3.08-1.349
		c2.861-2.597,4.181-6.425,4.005-10.562c-0.302-7.091-6.542-12.85-14.61-12.85s-14.319,5.759-14.61,12.85
		c-0.176,4.283,1.584,8.039,4.33,10.726C-285.394,208.313-284.4,208.604-283.845,208.618z"/>
	<path fill="#666666" d="M-243.506,157.335c0,1.167-0.946,2.112-2.112,2.112l-14.434,0.118c-1.167,0-2.112-0.946-2.112-2.113l0,0
		c0-1.167,0.946-2.112,2.112-2.112l14.434-0.117C-244.452,155.223-243.506,156.169-243.506,157.335L-243.506,157.335z"/>
	
		<rect x="-265.098" y="172.826" transform="matrix(0.9343 0.3566 -0.3566 0.9343 48.4909 105.8287)" fill="#666666" width="4.577" height="23.235"/>
	<rect x="-297.224" y="208.588" fill="#999999" width="44.711" height="2.993"/>
	<circle fill="#666666" cx="-297.253" cy="210.144" r="2.465"/>
	<circle fill="#666666" cx="-252.659" cy="210.144" r="2.464"/>
	<path fill="#999999" d="M-282.877,187.143c-2.993,1.981-8.376,6.307-5.339,14.493c1.35,3.638,3.638,5.104,5.692,5.281
		c2.196,0.188,8.124,0.037,10.914,0.176c1.173,0.059,1.702-0.587,1.643-1.76c-0.061-1.226-0.416-2.698-2.406-4.577
		c-2.859-2.7-8.692-4.229-8.029-11.848C-280.295,187.671-281.375,186.149-282.877,187.143z"/>
	
		<ellipse transform="matrix(0.8561 -0.5168 0.5168 0.8561 -139.0705 -114.0728)" fill="#999999" cx="-274.384" cy="192.702" rx="3.021" ry="5.823"/>
	
		<rect x="-296.783" y="151.908" transform="matrix(0.9789 -0.2043 0.2043 0.9789 -37.9939 -56.8428)" fill="#666666" width="4.929" height="7.393"/>
	<path fill="#666666" d="M-293.717,146.496l-0.85-4.587c-0.142-0.765-0.876-1.27-1.641-1.128l-1.904,0.353
		c-0.765,0.142-1.27,0.876-1.128,1.641l0.85,4.586L-293.717,146.496z"/>
	
		<rect x="-296.575" y="147.488" transform="matrix(0.9819 -0.1894 0.1894 0.9819 -33.4616 -52.8109)" fill="#999999" width="7.041" height="2.377"/>
	<path fill="#666666" d="M-288.894,148.411c0.136,0.766-0.374,1.497-1.14,1.633l-0.26,0.046c-0.766,0.136-1.497-0.374-1.633-1.14
		l-3.796-21.373c-0.136-0.766,0.374-1.497,1.14-1.633l0.26-0.046c0.766-0.136,1.497,0.374,1.633,1.14L-288.894,148.411z"/>
	
		<rect x="-305.185" y="137.544" transform="matrix(0.7128 0.7014 -0.7014 0.7128 11.4147 250.2045)" fill="#666666" width="10.764" height="2.992"/>
	<path fill="#CCCCCC" d="M-273.636,201.812c0,0.51-0.414,0.924-0.924,0.924l0,0c-0.51,0-0.924-0.414-0.924-0.924v-9.153
		c0-0.51,0.414-0.924,0.924-0.924l0,0c0.511,0,0.924,0.414,0.924,0.924V201.812z"/>
	<path fill="#666666" d="M-272.455,202.53c0,0.648-0.525,1.174-1.173,1.174h-5.42c-0.648,0-1.173-0.525-1.173-1.174v-0.293
		c0-0.648,0.525-1.173,1.173-1.173h5.42c0.648,0,1.173,0.525,1.173,1.173V202.53z"/>
</g>
<g>
	<path fill="#4DBFD9" d="M102.427,16.563c1.183,1.553,0.88,3.771-0.673,4.952L19.755,83.928c-1.553,1.182-3.771,0.882-4.953-0.671
		l0,0c-1.182-1.553-0.88-3.771,0.673-4.952l81.999-62.414C99.026,14.709,101.245,15.01,102.427,16.563L102.427,16.563z"/>
	<g>
		<g>
			<path fill="#4F4F4F" d="M10.194,60.485l24.56,32.267c2.23,2.93,5.961,3.842,8.333,2.036l0.232-0.24L11.472,52.845l-0.251,0.078
				C8.85,54.728,8.39,58.114,10.194,60.485z"/>
			<path fill="#666666" d="M11.221,52.923l31.692,41.639l0.174,0.226c2.37-1.804,2.485-5.643,0.255-8.573l-24.56-32.267
				C16.978,51.578,13.592,51.118,11.221,52.923z"/>
		</g>
		<g>
			<path fill="#4F4F4F" d="M73.117,12.592l24.559,32.267c2.23,2.93,5.961,3.842,8.332,2.037l0.176-0.225L74.332,5l-0.19,0.032
				C71.771,6.835,71.312,10.221,73.117,12.592z"/>
			<path fill="#666666" d="M74.142,5.031l31.866,41.865c2.371-1.805,2.486-5.644,0.257-8.573L81.704,6.056
				C79.899,3.685,76.514,3.226,74.142,5.031z"/>
		</g>
		<g>
			<path fill="#4F4F4F" d="M17.285,42.591l-0.205,0.096c-2.383,1.863-2.837,5.297-0.999,7.712l5.004,6.575l0.3,0.394l24.639,32.371
				c2.271,2.983,6.053,3.92,8.489,2.126l0.146-0.172L17.285,42.591z"/>
			<path fill="#666666" d="M17.133,42.639c-0.019,0.014-0.033,0.034-0.053,0.048l37.433,49.178c0.019-0.014,0.042-0.022,0.061-0.036
				c2.435-1.853,2.552-5.791,0.263-8.798l-29.942-39.34C23.041,41.258,19.567,40.786,17.133,42.639z"/>
		</g>
		<g>
			<path fill="#4F4F4F" d="M61.603,15.75l29.942,39.34c2.271,2.983,6.053,3.92,8.49,2.126l0.133-0.135L62.832,7.924l-0.229,0.114
				C60.219,9.902,59.764,13.336,61.603,15.75z"/>
			<path fill="#666666" d="M62.655,7.99c-0.02,0.015-0.033,0.034-0.052,0.048l37.432,49.178c0.02-0.014,0.042-0.021,0.061-0.036
				c2.433-1.852,2.551-5.791,0.262-8.798L70.415,9.042C68.563,6.609,65.088,6.138,62.655,7.99z"/>
		</g>
	</g>
</g>
<g>
	<g>
		<path fill="#4DBFD9" d="M-94.789,44.192c0,0,20.709-6.788,34.977-16.899c5.373-3.809,7.668-0.202,8.865,3.047
			c0.97,2.632-3.74,3.463-3.74,3.463S-89.463,48.021-92.63,48.496S-94.789,44.192-94.789,44.192z"/>
		<path fill="#333333" d="M-40.835,39.898c2.719-0.503,5.284-2.613,6.486-3.73c-0.605-4.599-2.351-5.135-3.924-3.369
			c-0.942,1.057-1.312,7.305-7.17,5.563c-2.146-0.638-3.959-2.281-5.542-4.275c-1.963-2.472-2.856-3.108-4.607-2.517
			c1.472,1.593,3.222,3.642,5.061,5.696C-48.177,39.898-44.575,40.591-40.835,39.898z"/>
		<g>
			<path fill="#333333" d="M-50.67,54.027c0,0,0.831-4.848-0.831-9.142c-0.986-2.548-3.74-5.818-5.264-7.065
				c-0.844-0.69-2.191-2.054-3.231-3.139c-4.045,2.089-12.641,6.633-17.859,6.533c-1.564-0.03-2.712-1.306-3.379-2.315
				c-2.593,0.964-3.531,1.542-7.113,2.938c-3.224,1.257-5.842,1.356-7.89,1.986c1.127,1.176,3.436,3.518,5.534,5.217
				c2.909,2.355,7.342,3.186,9.974,2.771s8.865-1.523,11.497,1.663c1.322,1.6,1.771,3.025,1.889,4.047
				c0.248-0.1,0.487-0.202,0.709-0.308c9.351-4.467,11.902-2.578,18.077-2.909c7.859-0.421,12.933-0.437,14.428-3.74
				C-39.447,52.352-50.67,54.027-50.67,54.027z"/>
			<path fill="#666666" d="M-34.324,36.332c-0.008-0.058-0.017-0.107-0.024-0.163c-1.202,1.117-3.768,3.227-6.486,3.73
				c-3.74,0.692-7.342,0-9.696-2.632c-1.839-2.055-3.589-4.103-5.061-5.696c-0.33,0.112-0.688,0.262-1.094,0.458
				c-1.469,0.709-2.796,1.349-4.001,1.927c-8.631,4.141-10.958,5.119-13.74,5.943c-4.275,1.267-5.541-1.455-5.541-1.455
				c-0.468,0.163-0.884,0.313-1.267,0.455c0.667,1.01,1.814,2.285,3.379,2.315c5.219,0.1,13.814-4.444,17.859-6.533
				c1.04,1.085,2.388,2.449,3.231,3.139c1.523,1.247,4.277,4.517,5.264,7.065c1.662,4.294,0.831,9.142,0.831,9.142
				s11.223-1.676,16.54-3.463c0.192-0.424,0.333-0.895,0.405-1.435C-33.367,46.443-33.81,40.525-34.324,36.332z"/>
		</g>
		<path fill="#666666" d="M-80.729,51.811c-2.632,0.416-7.064-0.416-9.974-2.771c-2.099-1.699-4.407-4.041-5.534-5.217
			c-0.548,0.168-1.064,0.367-1.53,0.646c-1.726,1.034-1.903,2.729-2.112,4.259c-0.433,3.174,1.335,5.576,5.818,7.861
			c7.751,3.951,20.805,3.318,26.718,0.931c-0.118-1.022-0.566-2.447-1.889-4.047C-71.864,50.288-78.098,51.396-80.729,51.811z"/>
		<path fill="#4DBFD9" d="M-99.845,48.209c0,0,2.812,2.439,4.433,3.602c2.749,1.971,2.651,5.125,10.805,5.125
			c7.479,0,9.512-0.313,13.506-1.731c7.41-2.632,9.91-5.363,17.453-4.433c15.723,1.939,20.017-2.424,20.017-2.424v4.917
			c0,0-5.866,3.076-13.367,2.909c-7.126-0.159-8.838-2.183-13.367-0.347c-5.859,2.375-8.381,3.948-18.285,4.848
			c-7.619,0.693-12.408-0.962-14.96-2.77c-4.987-3.532-6.649-5.818-6.649-5.818L-99.845,48.209z"/>
		<path fill="#1C90BF" d="M-77.547,37.373c0,0,1.821,0.93,3.563,3.622c1.742,2.692,2.692,0.95,2.375,0
			C-71.926,40.044-74.519,33.75-77.547,37.373z"/>
		<path fill="#1C90BF" d="M-72.557,34.825c0,0,2.412,1.271,4.154,3.962c1.741,2.692,2.691,0.95,2.375,0
			S-69.528,31.203-72.557,34.825z"/>
		<path fill="#1C90BF" d="M-67.777,32.28c0,0,3.234,1.569,4.977,4.261c1.741,2.692,2.691,0.95,2.375,0S-64.749,28.658-67.777,32.28z
			"/>
		<path fill="#1C90BF" d="M-62.869,29.241c0,0,3.117,0.831,5.897,4.846c1.825,2.636,2.691,0.95,2.375,0
			C-54.913,33.137-59.96,25.449-62.869,29.241z"/>
	</g>
	<g>
		<path fill="#4DBFD9" d="M-90.535,84.359c0,0,19.394-9.941,31.905-22.159c4.712-4.602,7.542-1.398,9.232,1.625
			c1.369,2.448-3.152,4.005-3.152,4.005s-32.126,19.479-35.18,20.442C-90.783,89.236-90.535,84.359-90.535,84.359z"/>
		<path fill="#333333" d="M-37.916,71.685c2.607-0.922,4.812-3.407,5.824-4.698c-1.316-4.448-3.124-4.705-4.402-2.715
			c-0.766,1.192-0.153,7.42-6.213,6.616c-2.22-0.295-4.266-1.634-6.142-3.357c-2.325-2.135-3.307-2.624-4.944-1.765
			c1.703,1.343,3.752,3.093,5.889,4.835C-45.167,72.832-41.502,72.953-37.916,71.685z"/>
		<g>
			<path fill="#333333" d="M-45.422,87.177c0,0,0.063-4.918-2.25-8.9c-1.372-2.362-4.603-5.162-6.303-6.155
				c-0.941-0.55-2.485-1.687-3.682-2.596c-3.669,2.696-11.449,8.528-16.619,9.245c-1.551,0.215-2.883-0.866-3.699-1.759
				c-2.41,1.357-3.247,2.075-6.566,4.014c-2.988,1.745-5.558,2.252-7.482,3.195c1.297,0.985,3.943,2.938,6.282,4.288
				c3.241,1.871,7.749,2,10.283,1.178c2.535-0.822,8.519-2.891,11.616-0.155c1.556,1.374,2.221,2.711,2.498,3.703
				c0.229-0.137,0.449-0.275,0.651-0.415c8.537-5.874,11.354-4.407,17.4-5.699c7.697-1.644,12.706-2.453,13.666-5.949
				C-34.598,83.768-45.422,87.177-45.422,87.177z"/>
			<path fill="#666666" d="M-32.043,67.144c-0.016-0.056-0.032-0.103-0.049-0.157c-1.013,1.291-3.217,3.775-5.824,4.698
				c-3.586,1.269-7.251,1.147-9.988-1.084c-2.137-1.742-4.186-3.492-5.889-4.835c-0.309,0.162-0.639,0.367-1.008,0.623
				c-1.341,0.931-2.551,1.769-3.651,2.528c-7.877,5.438-10.023,6.769-12.643,8.018c-4.024,1.919-5.699-0.57-5.699-0.57
				c-0.438,0.233-0.825,0.447-1.181,0.647c0.816,0.893,2.148,1.974,3.699,1.759c5.17-0.717,12.95-6.548,16.619-9.245
				c1.196,0.909,2.74,2.046,3.682,2.596c1.7,0.993,4.931,3.793,6.303,6.155c2.313,3.981,2.25,8.9,2.25,8.9
				s10.824-3.409,15.796-6.006c0.124-0.448,0.189-0.935,0.176-1.48C-29.517,76.981-30.878,71.206-32.043,67.144z"/>
		</g>
		<path fill="#666666" d="M-75.458,89.687c-2.534,0.822-7.042,0.693-10.283-1.178c-2.339-1.351-4.985-3.303-6.282-4.288
			c-0.516,0.252-0.994,0.529-1.41,0.877c-1.543,1.291-1.454,2.994-1.421,4.538c0.068,3.203,2.19,5.298,6.975,6.855
			c8.273,2.692,21.068,0.026,26.536-3.256c-0.277-0.991-0.942-2.329-2.498-3.703C-66.939,86.795-72.923,88.864-75.458,89.687z"/>
		<path fill="#4DBFD9" d="M-94.901,89.117c0,0,3.158,1.97,4.94,2.864c3.023,1.518,3.42,4.648,11.474,3.374
			c7.388-1.169,9.346-1.796,13.069-3.821c6.908-3.758,8.95-6.846,16.546-7.106c15.832-0.542,19.392-5.523,19.392-5.523l0.769,4.857
			c0,0-5.313,3.955-12.748,4.962c-7.063,0.958-9.07-0.774-13.258,1.748c-5.415,3.261-7.66,5.209-17.302,7.646
			c-7.417,1.875-12.406,0.989-15.21-0.398c-5.478-2.709-7.477-4.707-7.477-4.707L-94.901,89.117z"/>
		<path fill="#1C90BF" d="M-74.571,74.928c0,0,1.944,0.634,4.085,3.021c2.142,2.387,2.808,0.518,2.347-0.371
			C-68.602,76.688-72.146,70.876-74.571,74.928z"/>
		<path fill="#1C90BF" d="M-70.04,71.631c0,0,2.581,0.878,4.723,3.265c2.141,2.387,2.807,0.518,2.346-0.371
			C-63.434,73.636-67.615,67.581-70.04,71.631z"/>
		<path fill="#1C90BF" d="M-65.718,68.371c0,0,3.44,1.044,5.581,3.431c2.142,2.387,2.808,0.518,2.347-0.371
			C-58.252,70.542-63.293,64.32-65.718,68.371z"/>
		<path fill="#1C90BF" d="M-61.344,64.602c0,0,3.208,0.334,6.581,3.865c2.215,2.318,2.808,0.518,2.347-0.371
			C-52.878,67.207-59.063,60.402-61.344,64.602z"/>
	</g>
</g>
<g>
	<g>
		<circle fill="#4F4F4F" cx="-206.049" cy="42.638" r="4.184"/>
		<circle fill="#4F4F4F" cx="-135.901" cy="42.638" r="4.184"/>
		<g>
			<path fill="#F4B073" d="M-161.017,49.7c0.057-0.002,0.516-0.021,0.574-0.023c4.534-0.197,7.007,2.768,7.974,5.91
				c1.038,3.373,4.451,4.526,6.145,9.663c1.29-3.041,4.503-8.443,6.708-12.899c-0.182-0.181-0.833-1.015-0.938-1.642
				c-0.141-0.844-0.188-0.563-0.657-0.375c-1.063,0.425-1.022-2.145-0.61-4.878s2.419-3.031,4.855-1.454
				c2.435,1.577,3.019,1.399,2.181,5.066c-0.334,1.463-3.514,13.369-4.785,16.464c-1.846,4.497-2.919,7.123-5.77,9.146
				c-0.967,0.687-2.687-0.054-4.503-1.97c-3.028-3.194-6.45-9.018-7.505-11.305c0,0-0.394,1.746-0.803,3.53
				c-0.553-1.307-1.391-3.213-2.005-4.679C-161.837,56.243-161.4,51.629-161.017,49.7z"/>
			<path fill="#F4B073" d="M-181.576,49.679c-0.058-0.001-0.109,0-0.167-0.002c-4.534-0.197-6.543,2.791-7.716,5.511
				c-1.397,3.241-4.573,4.785-6.403,10.062c-1.29-3.041-4.503-8.443-6.708-12.899c0.182-0.181,0.833-1.015,0.938-1.642
				c0.141-0.844,0.188-0.563,0.657-0.375c1.063,0.425,1.022-2.145,0.61-4.878s-2.42-3.031-4.855-1.454s-3.019,1.399-2.181,5.066
				c0.334,1.463,3.514,13.369,4.785,16.464c1.846,4.497,2.919,7.123,5.77,9.146c0.967,0.687,2.617-0.122,4.503-1.97
				c3.448-3.377,6.45-9.018,7.505-11.305c0,0,0.293,1.449,0.702,3.233c0.553-1.307,1.263-2.986,1.878-4.453
				C-180.578,56.173-181.193,51.608-181.576,49.679z"/>
			<g>
				<path fill="#F0851D" d="M-171.096,72.942h0.012V54.636c-0.021,0-0.038,0.003-0.059,0.002c-4.227,0.122-5.257-4.03-5.504-5.833
					c-1.084,0.549-2.658,0.95-4.929,0.874c0.383,1.929,0.999,6.494-0.684,10.504c-0.615,1.466-1.325,3.146-1.878,4.453
					c0.305,1.329,0.673,2.843,1.034,4.084c0.424,1.46,0.996,2.842,1.541,4.222h10.374H-171.096z"/>
				<path fill="#F4B073" d="M-167.481,46.393c0,0-0.003,0.016-0.01,0.046c-0.531-1.926,0.102-4.188,0.102-4.188l-3.56,0.702
					l-0.135-0.027l-3.424-0.675c0,0,0.747,2.668-0.063,4.676c-0.287,0.507-0.892,1.278-2.076,1.877
					c0.248,1.803,1.277,5.955,5.504,5.833c0.021,0.001,0.038-0.002,0.059-0.002c4.38,0.084,5.291-4.449,5.476-6.075
					C-167.159,47.606-167.481,46.393-167.481,46.393z"/>
				<path fill="#F4B073" d="M-162.09,79.228c0.18-1.992,0.844-4.255,1.5-6.286h-10.494h-0.012h-0.094h-10.374
					c0.755,1.909,1.459,3.813,1.648,5.91c0.312,3.447-2.147,6.098-3.46,10.695l10.921,0.146l0,0.041l1.369-0.018l0.177-0.002
					l1.546,0.021l0-0.041l10.65-0.146C-160.023,84.951-162.401,82.675-162.09,79.228z"/>
				<path fill="#E8721B" d="M-171.084,54.636v18.306h10.494c0.533-1.651,1.06-3.15,1.315-4.222c0.22-0.924,0.71-2.501,1.181-3.957
					c-0.561-1.324-1.296-3.064-1.932-4.58c-1.679-4.002-1.069-8.557-0.686-10.492c-2.333,0.011-3.879-0.504-4.896-1.13
					C-165.793,50.188-166.704,54.72-171.084,54.636z"/>
			</g>
			<g>
				<path fill="#582A1A" d="M-180.297,32.343c1.549,0.919,3.488,1.327,5.193,1.803c2.499,0.697,5.184,0.935,7.738,0.371
					c2.131-0.47,4.974-1.29,6.155-3.31c1.021-1.748,0.379-6.199,0.06-7.135c-1.327-3.897-2.653-5.018-5.825-5.133
					c-1.384-1.845-3.453-2.175-5.018-2.134c-4.383,0.115-7.629,2.933-9.458,8.305C-181.641,25.663-182.471,30.304-180.297,32.343z"
					/>
				<path fill="#F9C38A" d="M-161.041,31.369c-0.353-0.638-0.857-0.733-1.208-0.634c-0.021,0.01-0.967-3.071-1.616-5.318
					c-2.238-1.05-4.386-1.946-6.909-2.152v-0.048c-0.366-0.021-1.071-0.011-1.455,0c-1.567,0.044-3.16,0.086-4.703,0.394
					c-0.391,0.078-0.783,0.186-1.174,0.198c-0.465,2.542-1.32,7.012-1.623,6.946c0,0.002-0.026-0.002-0.039-0.006
					c-0.04-0.01-0.068-0.021-0.102-0.031c-0.336-0.079-0.729,0.002-1.041,0.567c-0.591,1.07,0,3.154,0.789,3.802
					c0.365,0.3,0.703,0.512,0.963,0.657c0.396,1.936,1.037,3.752,2.074,4.863c2.656,2.846,5.077,3.453,5.778,3.575
					c0.052,0.009,0.129,0.016,0.201,0.021v0.008c0.001,0,0.009,0.001,0.009,0.001s0.034-0.003,0.084-0.01
					c0.477-0.063,3.121-0.536,5.976-3.595c0.999-1.07,1.632-2.801,2.032-4.667c0.271-0.135,0.701-0.379,1.175-0.769
					C-161.041,34.523-160.449,32.439-161.041,31.369z"/>
				<path fill="#582A1A" d="M-162.085,25.917c0.115-1.615-2.884-5.248-4.729-4.844c-0.243,0.053-0.622,0.272-0.993,0.587
					c-1.318-0.579-3.918-1.366-7.428-0.703c-5.19,0.98-4.739,9.39-4.739,9.39s7.738-2.257,10.199-4.853
					c-0.673,2.192-4.326,3.364-4.326,3.364s2.422,0.27,4.306-1.365c0.769-0.667,1.336-1.284,1.768-1.848
					c1.325,1.741,3.828,3.526,5.874,4.845C-161.021,28.677-162.201,27.532-162.085,25.917z"/>
				<g>
					<path fill="#E59A5C" d="M-179.86,32.087l0.253,2.056c0,0-0.718-0.38-0.845-1.338C-180.528,32.23-180.325,31.862-179.86,32.087z
						"/>
					<path fill="#E59A5C" d="M-162.442,32.087l-0.253,2.056c0,0,0.718-0.38,0.845-1.338
						C-161.775,32.23-161.978,31.862-162.442,32.087z"/>
				</g>
			</g>
			<ellipse fill="#E2995D" cx="-171.059" cy="85.691" rx="0.562" ry="0.887"/>
		</g>
		<circle fill="#4F4F4F" cx="-199.975" cy="49.791" r="4.184"/>
		<circle fill="#4F4F4F" cx="-141.974" cy="49.791" r="4.184"/>
	</g>
	<g>
		<path fill="#4F4F4F" d="M-182.565,97.704c-0.224,2.466-0.696,6.127-1.073,8.908h12.513V89.547h-12.308
			c-0.428,1.098-0.822,2.378-1.183,3.753C-183.685,93.655-182.291,94.688-182.565,97.704z"/>
		<path fill="#333333" d="M-158.648,106.611c-0.377-2.781-0.849-6.441-1.073-8.908c-0.286-3.139,1.236-4.13,2.162-4.443
			c-0.354-1.36-0.743-2.626-1.168-3.713h-12.398v17.064H-158.648z"/>
		<path fill="#F0851D" d="M-183.638,106.611c0.377-2.781,0.849-6.441,1.073-8.908c0.274-3.015-1.12-4.048-2.051-4.403
			c-1.146,4.374-1.95,9.718-2.41,13.311H-183.638z"/>
		<path fill="#E8721B" d="M-158.648,106.611h3.462c-0.45-3.604-1.232-8.97-2.373-13.351c-0.925,0.313-2.447,1.304-2.162,4.443
			C-159.497,100.17-159.025,103.831-158.648,106.611z"/>
	</g>
</g>
<g>
	<path fill="#4F4F4F" d="M-289.138,52.525c-5.713-2.016-7.629-7.394-5.047-13.262c2.325-5.284,10.405-5.515,14.236-5.516v-9.155
		c-0.026,0-0.056,0-0.083,0c-5.052,0-13.89,0.104-19.307,5.986c-6.162,6.69-6.338,16.196-3.169,22.006
		c3.169,5.81,5.281,9.154,3.873,12.323s-6.787,14.313-1.761,23.063c4.653,8.099,12.672,8.796,20.446,8.802V52.291
		C-282.387,52.291-285.21,53.912-289.138,52.525z"/>
	<path fill="#333333" d="M-260.35,30.578c-5.389-5.851-14.53-5.984-19.599-5.986v9.155c0.008,0,0.017,0,0.024,0
		c3.86,0,12.093,0.222,14.422,5.517c2.582,5.868,0.667,11.246-5.047,13.262c-3.928,1.387-6.945-0.235-9.399-0.234v20.368
		c0.036,0,0.07-0.005,0.105-0.005c3.354,0,6.074,2.719,6.074,6.074s-2.719,6.074-6.074,6.074c-0.035,0-0.069-0.005-0.105-0.005
		v11.977c0.035,0,0.07,0,0.105,0c7.807,0,15.877-0.667,20.551-8.802c5.026-8.75-0.352-19.894-1.761-23.063
		c-1.408-3.169,0.704-6.514,3.873-12.323C-254.012,46.774-254.188,37.268-260.35,30.578z"/>
	<path fill="#4F4F4F" d="M-279.847,72.819c-0.036,0-0.07,0.005-0.105,0.005c-3.306,0.057-5.969,2.75-5.969,6.068
		c0,3.319,2.664,6.012,5.969,6.069c0.035,0,0.069,0.005,0.105,0.005c3.354,0,6.073-2.719,6.073-6.074
		S-276.493,72.819-279.847,72.819z"/>
	<g>
		<path fill="#FFFFFF" d="M-283.861,80.646c1.495-1.444,2.433-2.39,2.433-3.209c0-0.566-0.312-0.929-0.887-0.929
			c-0.414,0-0.76,0.278-1.047,0.6l-0.541-0.541c0.489-0.523,0.979-0.828,1.714-0.828c1.03,0,1.697,0.651,1.697,1.647
			c0,0.955-0.887,1.935-1.951,3.058c0.278-0.025,0.633-0.059,0.895-0.059h1.317v0.828h-3.632V80.646z"/>
		<path fill="#FFFFFF" d="M-275.734,79.828h-0.676v1.385h-0.912v-1.385h-2.373v-0.659l2.128-3.328h1.157v3.235h0.676V79.828z
			 M-277.322,79.076v-1.216c0-0.313,0.025-0.802,0.042-1.115h-0.034c-0.135,0.279-0.287,0.549-0.439,0.836l-0.98,1.495H-277.322z"/>
	</g>
	<path fill="#FFFFFF" d="M-279.847,85.275c-3.519,0-6.382-2.863-6.382-6.382s2.863-6.382,6.382-6.382
		c3.519,0,6.382,2.863,6.382,6.382S-276.328,85.275-279.847,85.275z M-279.847,73.215c-3.13,0-5.677,2.547-5.677,5.678
		s2.547,5.678,5.677,5.678c3.131,0,5.678-2.547,5.678-5.678S-276.716,73.215-279.847,73.215z"/>
</g>
</svg>
